<svg width="369" height="199" viewBox="0 0 369 199" fill="none" xmlns="http://www.w3.org/2000/svg">
<path d="M184.957 198.348C233.584 198.348 273.003 191.632 273.003 183.347C273.003 175.062 233.584 168.346 184.957 168.346C136.331 168.346 96.9116 175.062 96.9116 183.347C96.9116 191.632 136.331 198.348 184.957 198.348Z" fill="#E6EDF2"/>
<path d="M78.3033 151.373C77.0254 151.373 75.9624 150.361 75.9115 149.077C75.6966 143.654 79.7452 138.978 85.3318 138.192C86.6493 138.006 87.8537 138.922 88.0347 140.228C88.2213 141.54 87.3052 142.75 85.9991 142.931C82.8608 143.372 80.5821 145.927 80.6952 148.885C80.7461 150.208 79.7169 151.322 78.3995 151.373C78.3655 151.373 78.3316 151.373 78.3033 151.373Z" fill="#FFD761"/>
<path d="M358.805 54.4662C358.5 54.4662 358.194 54.4549 357.895 54.4266C356.577 54.3135 355.599 53.16 355.706 51.8425C355.814 50.525 356.979 49.5525 358.29 49.6542C358.539 49.6769 358.794 49.6825 359.042 49.6712C361.214 49.5864 363.125 48.3481 363.798 46.5952C364.267 45.3625 365.653 44.7405 366.891 45.2155C368.124 45.6848 368.746 47.0701 368.271 48.3085C366.908 51.8821 363.357 54.2966 359.235 54.4605C359.093 54.4662 358.952 54.4662 358.805 54.4662Z" fill="#FFD761"/>
<path d="M201.639 25.1704C200.672 25.1704 199.761 24.5824 199.399 23.6211C198.93 22.3828 199.558 21.0031 200.79 20.5338C201.407 20.3019 202.006 19.7365 202.702 19.0862C203.923 17.9383 205.597 16.3721 208.22 16.2646C209.538 16.2194 210.652 17.2429 210.708 18.5603C210.759 19.8835 209.73 20.9974 208.413 21.0483C207.61 21.0822 206.999 21.6194 205.981 22.575C205.048 23.4458 203.997 24.4353 202.487 25.0064C202.204 25.1195 201.916 25.1704 201.639 25.1704Z" fill="#FFD761"/>
<path d="M291.364 12.5154C291.335 12.5154 291.301 12.5154 291.273 12.5154C289.95 12.4646 288.921 11.3563 288.972 10.0331C288.977 9.88046 288.977 9.72779 288.972 9.58078C288.91 8.02014 288.203 6.84967 286.817 6.00149C285.426 5.15332 283.419 4.71228 281.321 4.79709C279.976 4.84233 278.884 3.81887 278.833 2.50138C278.782 1.17823 279.812 0.0642995 281.129 0.0134092C284.199 -0.105335 287.106 0.567547 289.311 1.91331C292.054 3.58704 293.631 6.23898 293.756 9.38853C293.767 9.65994 293.767 9.93135 293.756 10.2141C293.71 11.5033 292.647 12.5154 291.364 12.5154Z" fill="#FF3A3A"/>
<path d="M340.512 115.116C339.234 115.116 338.171 114.104 338.12 112.82C338.07 111.497 339.099 110.383 340.416 110.332C343.905 110.191 346.065 109.433 347.213 107.94C348.021 106.894 349.52 106.696 350.572 107.499C351.618 108.302 351.816 109.806 351.013 110.858C348.282 114.415 343.769 114.992 340.608 115.122C340.575 115.116 340.541 115.116 340.512 115.116Z" fill="#7041EE"/>
<path d="M51.5013 61.319C51.3769 61.319 51.2525 61.3077 51.1225 61.2907C49.8163 61.0815 48.9285 59.8545 49.1321 58.5539C49.9124 53.6345 53.9214 48.2854 59.819 48.0479C60.1074 48.0366 60.4014 48.0366 60.6842 48.0536C62.0017 48.1214 63.0195 49.2467 62.9516 50.5642C62.8838 51.8873 61.7585 52.9108 60.441 52.8316C60.294 52.826 60.147 52.826 60 52.8316C56.8222 52.956 54.3342 56.2921 53.8536 59.306C53.6726 60.4764 52.6605 61.319 51.5013 61.319Z" fill="#FF3A3A"/>
<path d="M4.06003 105.237C3.47762 105.237 2.89521 105.028 2.4372 104.604C0.933109 103.213 0.0905923 101.347 0.00577522 99.2039C-0.0168427 98.6215 -0.124278 93.4929 3.27406 93.3572C3.65856 93.3402 4.04307 93.3968 4.4615 93.5155C5.73376 93.8831 6.46318 95.2119 6.09564 96.4785C5.90339 97.1457 5.44538 97.6659 4.86862 97.9543C4.81208 98.3388 4.77815 98.7685 4.78946 99.0173C4.82339 99.8881 5.11742 100.567 5.68852 101.093C6.66109 101.992 6.71763 103.501 5.82423 104.474C5.34925 104.977 4.70464 105.237 4.06003 105.237Z" fill="#7041EE"/>
<path d="M289.085 163.976C288.39 163.976 287.7 163.671 287.225 163.088C286.79 162.551 286.626 161.878 286.716 161.239C286.433 160.974 286.1 160.702 285.891 160.566C285.155 160.097 284.432 159.95 283.674 160.114C282.379 160.397 281.107 159.583 280.824 158.288C280.541 156.999 281.356 155.721 282.65 155.438C284.652 154.997 286.665 155.376 288.475 156.529C288.955 156.835 289.769 157.479 290.42 158.163C292.393 160.227 291.884 161.799 291.398 162.557C291.189 162.879 290.929 163.168 290.595 163.439C290.148 163.801 289.611 163.976 289.085 163.976Z" fill="#FF3A3A"/>
<path d="M123.16 11.9726C122.029 11.9726 121.023 11.164 120.808 10.0105C120.548 8.60821 119.428 7.53386 118.133 6.28988C117.551 5.73008 116.946 5.15333 116.386 4.50306C115.521 3.50222 115.628 1.99248 116.624 1.12734C117.624 0.26221 119.134 0.369645 119.999 1.36483C120.418 1.84546 120.915 2.32609 121.447 2.83499C123.019 4.34474 124.981 6.22768 125.518 9.14539C125.756 10.4459 124.896 11.6956 123.596 11.933C123.449 11.9557 123.302 11.9726 123.16 11.9726Z" fill="#7041EE"/>
<path d="M207.847 174.355L183.671 161.92L159.494 174.355C154.434 176.933 148.25 176.508 143.604 173.183C138.958 169.844 136.621 164.19 137.567 158.595L142.006 131.952L122.625 113.013C118.406 108.942 117.116 102.905 118.837 97.693C120.613 92.3025 125.317 88.3479 130.999 87.499L157.927 83.4854L170.118 59.3618C175.267 49.1968 192.075 49.1968 197.224 59.3618L209.415 83.4854L236.343 87.499C242.024 88.3489 246.729 92.3035 248.505 97.693C250.281 103.097 248.83 109.03 244.717 113.013L225.335 131.952L229.775 158.595C230.722 164.19 228.384 169.844 223.738 173.183C219.123 176.494 212.949 176.983 207.847 174.355Z" fill="#FFD800"/>
<path d="M167.596 126.176C167.596 127.736 168.876 129.016 170.436 129.016C171.996 129.016 173.276 127.736 173.276 126.176V121.576H177.996C179.516 121.576 180.756 120.336 180.756 118.816C180.756 117.296 179.516 116.056 177.996 116.056H173.276V111.456C173.276 109.896 171.996 108.616 170.436 108.616C168.876 108.616 167.596 109.896 167.596 111.456V116.056H162.876C161.356 116.056 160.116 117.296 160.116 118.816C160.116 120.336 161.356 121.576 162.876 121.576H167.596V126.176ZM195.622 133.376C201.782 133.376 206.062 129.616 206.062 123.696V123.616C206.062 117.296 201.782 114.656 196.262 114.656C194.702 114.656 193.702 114.856 192.582 115.136L192.902 110.296H202.342C203.822 110.296 205.062 109.096 205.062 107.616C205.062 106.136 203.822 104.896 202.342 104.896H190.182C188.702 104.896 187.542 106.056 187.462 107.536L186.902 117.016C186.822 118.056 187.182 118.896 188.022 119.496C189.262 120.376 189.942 120.736 190.822 120.736C191.662 120.736 192.702 120.016 195.062 120.016C197.982 120.016 200.022 121.416 200.022 123.816V123.896C200.022 126.376 198.102 127.776 195.502 127.776C193.542 127.776 191.902 127.216 190.182 125.976C189.702 125.616 189.222 125.416 188.502 125.416C186.902 125.416 185.582 126.776 185.582 128.376C185.582 129.416 186.102 130.216 186.822 130.736C189.062 132.336 191.742 133.376 195.622 133.376Z" fill="white"/>
</svg>
