<svg width="82" height="82" viewBox="0 0 82 82" fill="none" xmlns="http://www.w3.org/2000/svg">
<path d="M74.9103 50.5383C76.0487 49.2677 76.7422 47.5905 76.7422 45.7555C76.7422 41.8001 73.5233 38.5813 69.5679 38.5813H55.6436C57.0226 34.3963 57.6109 28.8435 57.6109 26.4632V24.0734C57.6109 18.7996 53.3191 14.5078 48.0453 14.5078H45.6539C44.557 14.5078 43.6005 15.2539 43.3342 16.3189L42.0317 21.5306C40.2063 28.8291 34.4111 36.8818 28.4135 38.3453C27.3628 35.6861 24.769 33.7985 21.7398 33.7985H7.39141C6.07135 33.7985 5 34.8698 5 36.1899V79.2352C5 80.5553 6.07135 81.6266 7.39141 81.6266H21.7398C24.592 81.6266 27.0599 79.9542 28.2158 77.5373L36.4326 80.2763C39.119 81.1722 41.9185 81.6266 44.7515 81.6266H64.7851C68.7405 81.6266 71.9594 78.4078 71.9594 74.4524C71.9594 73.5197 71.7808 72.6269 71.4556 71.8091C74.4974 70.9785 76.7422 68.1901 76.7422 64.8868C76.7422 63.0518 76.0487 61.3746 74.9103 60.1039C76.0487 58.8333 76.7422 57.1561 76.7422 55.3211C76.7422 53.4861 76.0487 51.809 74.9103 50.5383ZM24.1312 74.4524C24.1312 75.7708 23.0583 76.8438 21.7398 76.8438H9.78281V38.5813H21.7398C23.0583 38.5813 24.1312 39.6542 24.1312 40.9727V74.4524ZM64.7851 52.9297H69.5679C70.8864 52.9297 71.9594 54.0027 71.9594 55.3211C71.9594 56.6396 70.8864 57.7125 69.5679 57.7125H64.7851C63.4651 57.7125 62.3937 58.7839 62.3937 60.1039C62.3937 61.424 63.4651 62.4954 64.7851 62.4954H69.5679C70.8864 62.4954 71.9594 63.5683 71.9594 64.8868C71.9594 66.2052 70.8864 67.2782 69.5679 67.2782H64.7851C63.4651 67.2782 62.3937 68.3495 62.3937 69.6696C62.3937 70.9896 63.4651 72.061 64.7851 72.061C66.1036 72.061 67.1765 73.1339 67.1765 74.4524C67.1765 75.7708 66.1036 76.8438 64.7851 76.8438H44.7515C42.4335 76.8438 40.1425 76.4723 37.944 75.739L28.9141 72.729V43.1377C32.6654 42.4251 36.337 40.0496 39.6515 36.1612C42.8878 32.3636 45.512 27.3289 46.671 22.6912L47.5208 19.2906H48.0453C50.6822 19.2906 52.8281 21.4365 52.8281 24.0734V26.4632C52.8281 29.6741 51.8237 35.8328 50.5387 38.5813H45.6539C44.3338 38.5813 43.2625 39.6526 43.2625 40.9727C43.2625 42.2928 44.3338 43.3641 45.6539 43.3641H69.5679C70.8864 43.3641 71.9594 44.4371 71.9594 45.7555C71.9594 47.074 70.8864 48.1469 69.5679 48.1469H64.7851C63.4651 48.1469 62.3937 49.2183 62.3937 50.5383C62.3937 51.8584 63.4651 52.9297 64.7851 52.9297Z" fill="#9FA5C0"/>
<path d="M50.4368 0C49.1161 0 48.0454 1.07071 48.0454 2.39141V7.33364C48.0454 8.65434 49.1161 9.72505 50.4368 9.72505C51.7575 9.72505 52.8282 8.65434 52.8282 7.33364V2.39141C52.8282 1.07071 51.7575 0 50.4368 0Z" fill="#9FA5C0"/>
<path d="M40.291 10.5457L36.909 7.16382C35.9753 6.2299 34.461 6.2299 33.5271 7.16382C32.5932 8.09775 32.5932 9.61182 33.5271 10.5457L36.909 13.9277C37.8428 14.8614 39.3572 14.8616 40.291 13.9277C41.2249 12.9937 41.2249 11.4797 40.291 10.5457Z" fill="#9FA5C0"/>
<path d="M67.3466 7.16382C66.4129 6.2299 64.8986 6.2299 63.9647 7.16382L60.5828 10.5456C59.6488 11.4795 59.6488 12.9936 60.5828 13.9275C61.5165 14.8614 63.0308 14.8616 63.9647 13.9277L67.3466 10.5457C68.2805 9.61182 68.2805 8.09775 67.3466 7.16382Z" fill="#9FA5C0"/>
</svg>
