<svg width="40" height="40" viewBox="0 0 40 40" fill="none" xmlns="http://www.w3.org/2000/svg">
<path d="M39 28.9063C39 27.4549 38.0692 26.2175 36.7734 25.7579L36.7734 11.0195C36.7734 9.49345 35.8087 8.07053 34.2529 7.30459L23.5013 2.04805C20.629 0.633961 17.0756 0.667879 14.2749 2.04671L3.5178 7.30593C1.96477 8.07053 1 9.49345 1 11.0195C1 12.5456 1.96477 13.9685 3.52054 14.7345L7.75391 16.8042L7.75391 24.4531C7.75391 26.1092 9.03091 27.5887 11.3497 28.6193C13.3813 29.5223 16.0581 30.0195 18.8867 30.0195C21.7153 30.0195 24.3921 29.5223 26.4238 28.6193C28.7425 27.5887 30.0195 26.1092 30.0195 24.4531V16.8042L34.2556 14.7331C34.3552 14.6842 34.4522 14.6323 34.5469 14.578L34.5469 25.7579C33.2511 26.2175 32.3203 27.4549 32.3203 28.9063C32.3203 29.761 32.6435 30.5414 33.1735 31.1328C32.6435 31.7242 32.3203 32.5046 32.3203 33.3594L32.3203 37.8867C32.3203 38.5016 32.8188 39 33.4336 39H37.8867C38.5015 39 39 38.5016 39 37.8867V33.3594C39 32.5046 38.6769 31.7242 38.1469 31.1328C38.6769 30.5414 39 29.761 39 28.9063ZM27.793 24.4531C27.793 25.1446 26.9218 25.9613 25.5194 26.5846C23.7662 27.3638 21.4107 27.793 18.8867 27.793C16.3628 27.793 14.0072 27.3638 12.254 26.5846C10.8516 25.9613 9.98047 25.1446 9.98047 24.4531V17.8928L14.2722 19.991C15.6648 20.6767 17.2605 21.0391 18.8867 21.0391C20.5129 21.0391 22.1086 20.6767 23.4985 19.9924L27.793 17.8928V24.4531ZM33.2748 12.7268L22.5177 17.9934C21.4295 18.5293 20.1738 18.8125 18.8867 18.8125C17.5996 18.8125 16.344 18.5293 15.2529 17.9921L4.50127 12.7356C3.70305 12.3426 3.22656 11.7011 3.22656 11.0195C3.22656 10.338 3.70305 9.69652 4.49852 9.30486L15.2556 4.04565C17.4673 2.95686 20.2913 2.94951 22.5206 4.04698L33.2722 9.30353C33.6033 9.46651 33.8779 9.67269 34.0872 9.90626L23.0944 9.90626C22.4957 8.59689 20.8608 7.6797 18.8867 7.6797C16.3896 7.6797 14.4336 9.1467 14.4336 11.0195C14.4336 12.8924 16.3896 14.3594 18.8867 14.3594C20.8608 14.3594 22.4957 13.4348 23.0944 12.1254L34.0875 12.1254C33.8785 12.3587 33.6047 12.5644 33.2748 12.7268ZM21.1133 11.0195C21.1133 11.4735 20.2459 12.1328 18.8867 12.1328C17.5276 12.1328 16.6602 11.4735 16.6602 11.0195C16.6602 10.5656 17.5276 9.90626 18.8867 9.90626C20.2459 9.90626 21.1133 10.5656 21.1133 11.0195ZM36.7734 36.7734H34.5469V33.3594C34.5469 32.7455 35.0463 32.2461 35.6602 32.2461C36.274 32.2461 36.7734 32.7455 36.7734 33.3594V36.7734ZM35.6602 30.0195C35.0463 30.0195 34.5469 29.5201 34.5469 28.9063C34.5469 28.2924 35.0463 27.793 35.6602 27.793C36.274 27.793 36.7734 28.2924 36.7734 28.9063C36.7734 29.5201 36.274 30.0195 35.6602 30.0195Z" fill="white"/>
</svg>
