<svg width="30" height="30" viewBox="0 0 30 30" fill="none" xmlns="http://www.w3.org/2000/svg">
<path d="M11.25 30.375H1.875C0.839531 30.375 0 29.5355 0 28.5V22.875C0 21.8395 0.839531 21 1.875 21C2.91047 21 3.75 21.8395 3.75 22.875V26.625H11.25C12.2855 26.625 13.125 27.4645 13.125 28.5C13.125 29.5355 12.2855 30.375 11.25 30.375Z" fill="#9FA5C0"/>
<path d="M28.125 30.375H18.75C17.7145 30.375 16.875 29.5355 16.875 28.5C16.875 27.4645 17.7145 26.625 18.75 26.625H26.25V22.875C26.25 21.8395 27.0895 21 28.125 21C29.1605 21 30 21.8395 30 22.875V28.5C30 29.5355 29.1605 30.375 28.125 30.375Z" fill="#9FA5C0"/>
<path d="M28.125 9.375C27.0895 9.375 26.25 8.53547 26.25 7.5V3.75H18.75C17.7145 3.75 16.875 2.91047 16.875 1.875C16.875 0.839531 17.7145 0 18.75 0H28.125C29.1605 0 30 0.839531 30 1.875V7.5C30 8.53547 29.1605 9.375 28.125 9.375Z" fill="#9FA5C0"/>
<path d="M11.25 3.75H3.75V7.5C3.75 8.53547 2.91047 9.375 1.875 9.375C0.839531 9.375 0 8.53547 0 7.5V1.875C0 0.839531 0.839531 0 1.875 0H11.25C12.2855 0 13.125 0.839531 13.125 1.875C13.125 2.91047 12.2855 3.75 11.25 3.75Z" fill="#9FA5C0"/>
</svg>
