<svg width="30" height="30" viewBox="0 0 30 30" fill="none" xmlns="http://www.w3.org/2000/svg">
<path d="M12.5 0C8.36373 0 4.99998 3.36375 4.99998 7.5V10C4.99998 11.5475 5.47125 12.9862 6.2775 14.1825C2.53248 16.3425 0 20.375 0 25V26.25C0 28.3175 1.68252 30 3.75 30H15C15.6912 30 16.25 29.44 16.25 28.75C16.25 28.06 15.6912 27.5 15 27.5H3.75C3.06 27.5 2.50002 26.9388 2.50002 26.2501V25.0001C2.50002 21.0763 4.77252 17.6751 8.07 16.0388C9.31377 16.9526 10.8425 17.5001 12.5 17.5001C16.6362 17.5001 20 14.1363 20 10.0001V7.5C20 3.36375 16.6362 0 12.5 0ZM17.5 10C17.5 12.7575 15.2575 15 12.5 15C9.74256 15 7.5 12.7575 7.5 10V7.5C7.5 4.74252 9.7425 2.50002 12.5 2.50002C15.2575 2.50002 17.5 4.74252 17.5 7.5V10H17.5Z" fill="#9FA5C0"/>
<path d="M28.75 21.25H23.75V16.25C23.75 15.56 23.1913 15 22.5001 15C21.8088 15 21.2501 15.56 21.2501 16.25V21.25H16.2501C15.5587 21.25 15 21.8099 15 22.4999C15 23.1899 15.5588 23.7499 16.25 23.7499H21.25V28.7499C21.25 29.4399 21.8087 29.9999 22.4999 29.9999C23.1912 29.9999 23.7499 29.4399 23.7499 28.7499V23.7499H28.7499C29.4411 23.7499 29.9999 23.1899 29.9999 22.4999C29.9999 21.8099 29.4412 21.25 28.75 21.25Z" fill="#9FA5C0"/>
</svg>
