<svg width="40" height="40" viewBox="0 0 40 40" fill="none" xmlns="http://www.w3.org/2000/svg">
<path d="M24.1409 27.1653C23.9074 26.6141 23.2712 26.3565 22.7199 26.5901C22.0527 26.8728 21.344 27.0161 20.6135 27.0161C19.8831 27.0161 19.1744 26.8728 18.5071 26.5901C17.9558 26.3565 17.3197 26.6141 17.0862 27.1653C16.8526 27.7166 17.1102 28.3527 17.6614 28.5863C18.5976 28.9829 19.5909 29.184 20.6135 29.184C21.6362 29.184 22.6294 28.9829 23.5656 28.5863C24.1169 28.3527 24.3744 27.7166 24.1409 27.1653Z" fill="#7041EE"/>
<path d="M31.0245 27.1953C31.4261 26.4436 31.7496 25.6444 31.9838 24.8081C34.6697 24.4885 36.7598 22.1983 36.7598 19.4277C36.7598 17.7529 35.9958 16.2532 34.7983 15.2582C35.8157 14.464 36.4716 13.2275 36.4716 11.8398C36.4716 11.0757 36.2654 10.3296 35.8802 9.67187C36.2654 9.01411 36.4716 8.26804 36.4716 7.50391C36.4716 4.86701 34.1327 2.85658 31.5632 3.20685C30.8084 1.86921 29.38 1 27.7998 1C26.1007 1 24.5496 2.00045 23.8485 3.54866C23.8353 3.57779 23.8242 3.60734 23.8137 3.63697C22.7613 3.33201 21.6495 3.16797 20.5 3.16797C19.254 3.16797 18.0521 3.36048 16.9222 3.71661C16.907 3.66003 16.8884 3.60373 16.8634 3.54866C16.1623 2.00045 14.6113 1 12.9121 1C11.3319 1 9.90347 1.86921 9.14859 3.20685C6.57665 2.85614 4.24023 4.87004 4.24023 7.50391C4.24023 8.26804 4.44648 9.01411 4.83166 9.67188C4.44648 10.3296 4.24023 11.0758 4.24023 11.8398C4.24023 13.2967 4.96318 14.587 6.06841 15.3736C4.94815 16.3673 4.24023 17.8161 4.24023 19.4277C4.24023 22.1983 6.3303 24.4885 9.0162 24.8081C9.25041 25.6443 9.57394 26.4436 9.97545 27.1953C5.55489 28.0605 2 32.064 2 36.916C2 37.5147 2.48534 38 3.08398 38L37.916 38C38.5147 38 39 37.5147 39 36.916C39 32.0634 35.4445 28.0604 31.0245 27.1953ZM32.3894 22.5049C32.4122 22.2048 32.4238 21.9016 32.4238 21.5957V16.3622C33.6855 16.8097 34.5918 18.0147 34.5918 19.4277C34.5918 20.8536 33.6689 22.0672 32.3894 22.5049ZM27.7998 3.16797C28.7691 3.16797 29.6245 3.82797 29.8802 4.77299C29.9611 5.07188 30.166 5.32192 30.4431 5.46002C30.7202 5.59812 31.0432 5.6112 31.3305 5.49579C32.7707 4.91745 34.3037 5.98662 34.3037 7.50391C34.3037 8.17742 33.9963 8.66008 33.7384 8.94633C33.3669 9.35868 33.3669 9.985 33.7384 10.3973C33.9963 10.6837 34.3037 11.1663 34.3037 11.8398C34.3037 12.955 33.4572 13.876 32.3729 13.9945C31.9886 9.80318 29.4265 6.2329 25.8308 4.42806C26.1848 3.66219 26.9555 3.16797 27.7998 3.16797ZM20.5 5.33594C25.8794 5.33594 30.2559 9.71242 30.2559 15.0918V15.0948C29.3494 14.4127 28.2231 14.0078 27.0039 14.0078C25.081 14.0078 23.39 15.0153 22.4277 16.5292C21.8165 16.2965 21.1653 16.1758 20.5 16.1758C19.8347 16.1758 19.1835 16.2965 18.5723 16.5292C17.61 15.0153 15.919 14.0078 13.9961 14.0078C12.7769 14.0078 11.6506 14.4127 10.7441 15.0948V15.0918C10.7441 9.71242 15.1206 5.33594 20.5 5.33594ZM30.2559 19.4277C30.2559 21.2209 28.797 22.6797 27.0039 22.6797C25.2108 22.6797 23.752 21.2209 23.752 19.4277C23.752 17.6346 25.2108 16.1758 27.0039 16.1758C28.797 16.1758 30.2559 17.6346 30.2559 19.4277ZM17.248 19.4277C17.248 21.2209 15.7892 22.6797 13.9961 22.6797C12.203 22.6797 10.7441 21.2209 10.7441 19.4277C10.7441 17.6346 12.203 16.1758 13.9961 16.1758C15.7892 16.1758 17.248 17.6346 17.248 19.4277ZM6.4082 19.4277C6.4082 18.0146 7.31449 16.8097 8.57617 16.3622V21.5957C8.57617 21.9015 8.58781 22.2048 8.61057 22.5049C7.33111 22.0672 6.4082 20.8536 6.4082 19.4277ZM8.62618 14.0057C8.60941 14.0061 8.59294 14.0078 8.57617 14.0078C7.38075 14.0078 6.4082 13.0353 6.4082 11.8398C6.4082 11.1664 6.71562 10.6837 6.97354 10.3973C7.34498 9.985 7.34498 9.35875 6.97354 8.9464C6.71562 8.66008 6.4082 8.17742 6.4082 7.50391C6.4082 5.99276 7.93518 4.91506 9.38136 5.49579C9.66876 5.6112 9.99171 5.59819 10.2688 5.46009C10.5459 5.32199 10.7508 5.07188 10.8317 4.77299C11.0874 3.82797 11.9429 3.16797 12.9121 3.16797C13.762 3.16797 14.5378 3.66848 14.8886 4.44302C14.9046 4.47851 14.9225 4.51254 14.9418 4.54542C11.4627 6.38646 8.99878 9.8985 8.62618 14.0057ZM19.416 35.832H4.24674C4.76286 32.2969 7.75422 29.4487 11.3238 29.2013C13.2957 31.5764 16.1703 33.1758 19.416 33.4697L19.416 35.832ZM11.0354 23.9641C11.8872 24.522 12.9041 24.8477 13.9961 24.8477C16.9846 24.8477 19.416 22.4163 19.416 19.4277C19.416 19.1306 19.391 18.8393 19.3448 18.555C19.7108 18.4159 20.1011 18.3437 20.5 18.3437C20.8989 18.3437 21.2892 18.4159 21.6552 18.555C21.609 18.8393 21.584 19.1306 21.584 19.4277C21.584 22.4163 24.0154 24.8477 27.0039 24.8477C28.0959 24.8477 29.1128 24.522 29.9646 23.9641C28.9035 28.2027 25.0629 31.3516 20.5 31.3516C15.9371 31.3516 12.0965 28.2027 11.0354 23.9641ZM21.584 35.832L21.584 33.4697C24.8297 33.1758 27.7042 31.5764 29.6762 29.2013C33.2458 29.4487 36.2371 32.2969 36.7533 35.832L21.584 35.832Z" fill="#7041EE"/>
</svg>
