<svg width="82" height="82" viewBox="0 0 82 82" fill="none" xmlns="http://www.w3.org/2000/svg">
<path d="M46.2421 14.0721V7.80795H49.1015C50.9813 7.80795 52.5054 6.28379 52.5054 4.40398C52.5054 2.52416 50.9815 1 49.1015 1H32.8985C31.0187 1 29.4946 2.52416 29.4946 4.40398C29.4946 6.28379 31.0187 7.80795 32.8985 7.80795H35.7579V14.0721C19.4901 16.6006 7 30.7028 7 47.668C7 66.4157 22.2525 81.668 41 81.668C59.7475 81.668 75 66.4154 75 47.668C75 30.7028 62.5099 16.6006 46.2421 14.0721ZM41 74.8603C26.0062 74.8603 13.808 62.6618 13.808 47.6682C13.808 32.6747 26.0064 20.4762 41 20.4762C55.9936 20.4762 68.1921 32.6747 68.1921 47.6682C68.1921 62.6618 55.9938 74.8603 41 74.8603Z" fill="#9FA5C0"/>
<path d="M44.4046 46.2545V30.2179C44.4046 28.3381 42.8805 26.814 41.0007 26.814C39.1208 26.814 37.5967 28.3381 37.5967 30.2179V48.2182C37.5967 48.7718 37.8173 49.3025 38.2094 49.693L47.7321 59.1757C49.0645 60.5024 51.2194 60.4975 52.5461 59.1656C53.8726 57.8334 53.868 55.678 52.536 54.3516L44.4046 46.2545Z" fill="#9FA5C0"/>
</svg>
