<svg width="169" height="167" viewBox="0 0 169 167" fill="none" xmlns="http://www.w3.org/2000/svg">
<g clip-path="url(#clip0)">
<path d="M118.478 139.877L84.298 130.103L50.1175 139.877C49.8214 140.464 49.7227 141.05 49.7227 141.734V161.935H118.873V141.734C118.873 141.05 118.774 140.464 118.478 139.877Z" fill="#646D73"/>
<path d="M163.656 9.77467H138.418C138.462 8.12373 138.63 6.56858 138.63 4.88733C138.63 2.1501 136.458 0 133.691 0H34.9046C32.1382 0 29.9653 2.1501 29.9653 4.88733C29.9653 6.56858 30.1342 8.12373 30.177 9.77467H4.93933C2.2092 9.77467 0 11.9606 0 14.662V27.0426C0 54.3315 22.0926 76.4995 49.3185 77.9266C54.9905 85.6538 61.7222 91.3883 69.3811 94.6188C68.1957 118.371 54.4643 134.89 51.2047 138.312C50.7104 138.703 50.3153 139.289 50.1177 139.876H118.478C118.28 139.289 117.886 138.703 117.391 138.312C114.033 134.89 100.4 118.469 99.2146 94.6188C106.875 91.3876 113.647 85.6518 119.324 77.9217C146.526 76.4715 168.596 54.3162 168.596 27.0426V14.662C168.596 11.9606 166.387 9.77467 163.656 9.77467ZM9.87866 27.0426V19.5493H30.6008C31.8827 35.703 35.4229 52.8112 42.8635 67.3501C24.2126 63.1942 9.87866 46.7369 9.87866 27.0426ZM158.717 27.0426C158.717 46.7268 144.396 63.1763 125.759 67.3416C133.141 52.8031 136.701 35.8603 137.995 19.5493H158.717V27.0426Z" fill="#FFD800"/>
<path d="M92.9921 60.1591L84.6853 55.929L76.3786 60.1591C74.6399 61.0359 72.515 60.8913 70.919 59.7604C69.3226 58.6244 68.5195 56.7014 68.8447 54.7981L70.37 45.7352L63.7106 39.2933C62.261 37.9083 61.8179 35.855 62.4092 34.082C63.0193 32.2484 64.6358 30.9032 66.5879 30.6145L75.84 29.2492L80.0288 21.0434C81.798 17.5858 87.5727 17.5858 89.3419 21.0434L93.5307 29.2492L102.783 30.6145C104.735 30.9036 106.351 32.2487 106.961 34.082C107.572 35.9203 107.073 37.9383 105.66 39.2933L99.0007 45.7352L100.526 54.7981C100.851 56.7014 100.048 58.6244 98.4517 59.7604C96.8661 60.8866 94.745 61.0529 92.9921 60.1591Z" fill="white"/>
<path d="M123.812 166.821H44.7832C42.0531 166.821 39.8439 164.635 39.8439 161.934C39.8439 159.232 42.0531 157.046 44.7832 157.046H123.812C126.543 157.046 128.752 159.232 128.752 161.934C128.752 164.635 126.543 166.821 123.812 166.821Z" fill="#2C2929"/>
</g>
<defs>
<clipPath id="clip0">
<rect width="168.596" height="166.821" fill="white"/>
</clipPath>
</defs>
</svg>
