<svg width="40" height="40" viewBox="0 0 40 40" fill="none" xmlns="http://www.w3.org/2000/svg">
<path d="M37.8574 17.809H34.7978C34.7052 17.809 34.6136 17.8129 34.5225 17.8189C33.8352 17.2056 33.075 16.6992 32.2618 16.3091C34.1164 14.9919 35.3286 12.8272 35.3286 10.3847C35.3286 6.38058 32.071 3.12305 28.067 3.12305C24.0626 3.12305 20.805 6.38058 20.805 10.3847C20.805 12.3089 21.5578 14.0606 22.7837 15.3611H17.4404C18.6663 14.0606 19.4188 12.3089 19.4188 10.3847C19.4188 6.38058 16.1612 3.12305 12.1572 3.12305C8.15307 3.12305 4.89523 6.38058 4.89523 10.3847C4.89523 12.6302 5.91998 14.6408 7.52614 15.9741C6.41391 16.3897 5.38202 17.0113 4.47718 17.8189C4.38613 17.8129 4.29478 17.809 4.20225 17.809H1.14258C0.511482 17.809 0 18.3205 0 18.9516L0 25.0707C0 25.7018 0.511482 26.2132 1.14258 26.2132H1.22381L1.22381 34.8614C1.22381 35.4922 1.73529 36.004 2.36639 36.004L36.6336 36.004C37.2647 36.004 37.7762 35.4922 37.7762 34.8614V26.2132H37.8574C38.4885 26.2132 39 25.7018 39 25.0707V18.9516C39 18.3205 38.4885 17.809 37.8574 17.809ZM36.7148 23.9281H34.7978C33.7409 23.9281 32.8807 23.0682 32.8807 22.011C32.8807 20.9541 33.7409 20.0942 34.7978 20.0942H36.7148V23.9281ZM23.0902 10.3847C23.0902 7.64069 25.3227 5.4082 28.0667 5.4082C30.8106 5.4082 33.0434 7.64069 33.0434 10.3847C33.0434 13.1289 30.8109 15.3611 28.067 15.3611C25.3227 15.3611 23.0902 13.1289 23.0902 10.3847ZM12.1572 5.4082C14.9011 5.4082 17.1336 7.64069 17.1336 10.3847C17.1336 13.1286 14.9011 15.3611 12.1572 15.3611C9.41288 15.3611 7.18039 13.1289 7.18039 10.3847C7.18039 7.64069 9.41288 5.4082 12.1572 5.4082ZM2.28516 20.0942H4.20225C5.25913 20.0942 6.11934 20.9541 6.11934 22.0113C6.11934 23.0682 5.25913 23.9281 4.20225 23.9281H2.28516L2.28516 20.0942ZM3.50896 26.2132H4.20225C6.51924 26.2132 8.4045 24.3283 8.4045 22.011C8.4045 20.728 7.82547 19.578 6.91617 18.8067H6.94324C8.12421 18.0512 9.49768 17.6466 10.9333 17.6466L21.8173 17.6466C19.7029 19.4289 18.3574 22.0955 18.3574 25.0707V33.7188H8.4042L8.4042 28.7421C8.4042 28.1113 7.89272 27.5995 7.26162 27.5995C6.63082 27.5995 6.11904 28.1113 6.11904 28.7421L6.11904 33.7186H3.50896L3.50896 26.2132ZM35.491 33.7186L32.8807 33.7186V28.7421C32.8807 28.1113 32.3692 27.5995 31.7381 27.5995C31.1073 27.5995 30.5955 28.1113 30.5955 28.7421V33.7186H20.6426V25.0707C20.6426 20.977 23.973 17.6466 28.067 17.6466C29.5092 17.6466 30.8883 18.0548 32.0722 18.8165C31.1695 19.5881 30.5958 20.7333 30.5958 22.0113C30.5958 24.3283 32.4808 26.2132 34.798 26.2132H35.491V33.7186Z" fill="#7041EE"/>
</svg>
