<?xml version="1.0" encoding="UTF-8"?>
<svg width="377px" height="268px" viewBox="0 0 377 268" version="1.1" xmlns="http://www.w3.org/2000/svg" xmlns:xlink="http://www.w3.org/1999/xlink">
    <title>Throphy</title>
    <g id="Page-1" stroke="none" stroke-width="1" fill="none" fill-rule="evenodd">
        <g id="Throphy" fill-rule="nonzero">
            <path d="M80.0031,154.658 C78.6975,154.658 77.6114,153.624 77.5594,152.313 C77.3398,146.772 81.4763,141.995 87.1842,141.192 C88.5303,141.001 89.7609,141.937 89.9457,143.271 C90.1364,144.612 89.2005,145.848 87.8659,146.033 C84.6596,146.484 82.3314,149.095 82.4469,152.116 C82.4989,153.468 81.4474,154.606 80.1013,154.658 C80.0667,154.658 80.032,154.658 80.0031,154.658 Z" id="Path" fill="#FFD761"></path>
            <path d="M366.593,55.6483 C366.281,55.6483 365.969,55.6367 365.663,55.6078 C364.317,55.4923 363.318,54.3137 363.427,52.9676 C363.537,51.6215 364.727,50.6279 366.068,50.7318 C366.322,50.755 366.582,50.7607 366.836,50.7492 C369.054,50.6625 371.007,49.3973 371.695,47.6064 C372.174,46.3469 373.59,45.7114 374.855,46.1967 C376.114,46.6762 376.75,48.0917 376.264,49.3569 C374.872,53.0081 371.244,55.4749 367.032,55.6425 C366.888,55.6483 366.744,55.6483 366.593,55.6483 Z" id="Path" fill="#FFD761"></path>
            <path d="M206.016,25.7168 C205.028,25.7168 204.098,25.116 203.728,24.1338 C203.249,22.8686 203.89,21.459 205.149,20.9795 C205.779,20.7426 206.391,20.1649 207.102,19.5005 C208.35,18.3277 210.06,16.7275 212.74,16.6177 C214.087,16.5715 215.225,17.6171 215.282,18.9632 C215.334,20.3151 214.283,21.4532 212.937,21.5052 C212.117,21.5399 211.493,22.0887 210.453,23.0651 C209.499,23.9548 208.425,24.9658 206.882,25.5493 C206.594,25.6648 206.299,25.7168 206.016,25.7168 Z" id="Path" fill="#FFD761"></path>
            <path d="M297.689,12.7871 C297.66,12.7871 297.625,12.7871 297.596,12.7871 C296.244,12.7351 295.193,11.6028 295.245,10.2509 C295.251,10.0949 295.251,9.93896 295.245,9.78875 C295.181,8.19424 294.459,6.99836 293.044,6.13177 C291.623,5.26519 289.572,4.81457 287.428,4.90123 C286.053,4.94744 284.938,3.90177 284.886,2.55568 C284.834,1.20381 285.886,0.0656953 287.232,0.0137003 C290.369,-0.107621 293.338,0.579868 295.592,1.95485 C298.394,3.6649 300.005,6.37442 300.132,9.59233 C300.144,9.86964 300.144,10.1469 300.132,10.4358 C300.086,11.753 299,12.7871 297.689,12.7871 Z" id="Path" fill="#FE0F00"></path>
            <path d="M347.904,117.615 C346.598,117.615 345.512,116.581 345.46,115.269 C345.408,113.917 346.46,112.779 347.806,112.727 C351.37,112.583 353.577,111.809 354.75,110.283 C355.576,109.215 357.107,109.012 358.182,109.833 C359.251,110.653 359.453,112.19 358.632,113.264 C355.842,116.898 351.232,117.488 348.002,117.62 C347.968,117.615 347.933,117.615 347.904,117.615 Z" id="Path" fill="#7041EE"></path>
            <path d="M52.619,62.6502 C52.4919,62.6502 52.3648,62.6386 52.232,62.6213 C50.8974,62.4075 49.9904,61.1539 50.1984,59.8251 C50.9956,54.799 55.0917,49.3337 61.1173,49.0911 C61.412,49.0795 61.7124,49.0795 62.0012,49.0968 C63.3473,49.1662 64.3872,50.3158 64.3179,51.6619 C64.2486,53.0138 63.0989,54.0595 61.7528,53.9786 C61.6026,53.9728 61.4524,53.9728 61.3022,53.9786 C58.0554,54.1057 55.5134,57.5142 55.0224,60.5935 C54.8375,61.7894 53.8034,62.6502 52.619,62.6502 Z" id="Path" fill="#FE0F00"></path>
            <path d="M4.14817,107.522 C3.55311,107.522 2.95806,107.308 2.4901,106.875 C0.953364,105.454 0.0925589,103.547 0.00590059,101.358 C-0.0172083,100.762 -0.126976,95.5225 3.34513,95.3839 C3.73798,95.3665 4.13083,95.4243 4.55835,95.5456 C5.85822,95.9212 6.60348,97.2788 6.22796,98.5729 C6.03154,99.2546 5.56358,99.7861 4.97431,100.081 C4.91654,100.474 4.88187,100.913 4.89343,101.167 C4.92809,102.057 5.22851,102.75 5.81201,103.287 C6.80569,104.206 6.86346,105.748 5.95066,106.742 C5.46537,107.256 4.80677,107.522 4.14817,107.522 Z" id="Path" fill="#7041EE"></path>
            <path d="M295.36,167.536 C294.65,167.536 293.945,167.224 293.46,166.629 C293.015,166.08 292.847,165.392 292.94,164.74 C292.651,164.468 292.31,164.191 292.096,164.052 C291.345,163.573 290.606,163.422 289.832,163.59 C288.509,163.879 287.209,163.047 286.92,161.724 C286.631,160.407 287.463,159.101 288.786,158.812 C290.831,158.361 292.888,158.749 294.736,159.927 C295.227,160.239 296.059,160.898 296.724,161.597 C298.74,163.705 298.22,165.311 297.723,166.086 C297.509,166.415 297.244,166.71 296.903,166.987 C296.446,167.357 295.898,167.536 295.36,167.536 Z" id="Path" fill="#FE0F00"></path>
            <path d="M125.834,12.2325 C124.678,12.2325 123.65,11.4063 123.43,10.2278 C123.165,8.79502 122.021,7.69735 120.698,6.42636 C120.103,5.85441 119.485,5.26514 118.913,4.60076 C118.029,3.57819 118.138,2.03567 119.155,1.15176 C120.178,0.267845 121.72,0.377612 122.604,1.3944 C123.032,1.88547 123.54,2.37653 124.083,2.89648 C125.689,4.439 127.694,6.36281 128.243,9.34386 C128.485,10.6726 127.607,11.9494 126.279,12.192 C126.128,12.2151 125.978,12.2325 125.834,12.2325 Z" id="Path" fill="#7041EE"></path>
            <path d="M232.494,232.952 L188.5,220.237 L144.506,232.952 C144.125,233.715 143.998,234.477 143.998,235.368 L143.998,261.645 L233.002,261.645 L233.002,235.368 C233.002,234.477 232.875,233.715 232.494,232.952 Z" id="Path" fill="#646D73"></path>
            <path d="M290.643,63.7148 L258.158,63.7148 C258.214,61.5673 258.432,59.5444 258.432,57.3574 C258.432,53.7968 255.635,51 252.074,51 L124.926,51 C121.365,51 118.568,53.7968 118.568,57.3574 C118.568,59.5444 118.786,61.5673 118.841,63.7148 L86.3574,63.7148 C82.8435,63.7148 80,66.5583 80,70.0723 L80,86.1769 C80,121.674 108.435,150.51 143.478,152.367 C150.778,162.418 159.443,169.877 169.301,174.08 C167.775,204.977 150.101,226.465 145.906,230.915 C145.27,231.424 144.761,232.187 144.507,232.949 L232.494,232.949 C232.239,232.187 231.731,231.424 231.095,230.915 C226.772,226.465 209.225,205.104 207.699,174.08 C217.559,169.877 226.276,162.416 233.582,152.36 C268.595,150.474 297,121.654 297,86.1769 L297,70.0723 C297,66.5583 294.157,63.7148 290.643,63.7148 Z M92.7148,86.1769 L92.7148,76.4297 L119.386,76.4297 C121.036,97.4422 125.593,119.697 135.17,138.609 C111.164,133.203 92.7148,111.795 92.7148,86.1769 Z M284.285,86.1769 C284.285,111.782 265.852,133.179 241.865,138.598 C251.366,119.686 255.948,97.6469 257.614,76.4297 L284.285,76.4297 L284.285,86.1769 Z" id="Shape" fill="#FED843"></path>
            <path d="M199.69,129.255 L188.999,123.752 L178.307,129.255 C176.069,130.395 173.334,130.207 171.28,128.736 C169.225,127.258 168.192,124.757 168.61,122.281 L170.573,110.492 L162.002,102.113 C160.136,100.311 159.566,97.6401 160.327,95.3338 C161.112,92.9486 163.193,91.1988 165.706,90.8232 L177.614,89.0473 L183.005,78.3733 C185.282,73.8756 192.715,73.8756 194.992,78.3733 L200.384,89.0473 L212.292,90.8232 C214.805,91.1993 216.885,92.9491 217.67,95.3338 C218.456,97.7251 217.814,100.35 215.995,102.113 L207.424,110.492 L209.387,122.281 C209.806,124.757 208.772,127.258 206.718,128.736 C204.677,130.201 201.947,130.417 199.69,129.255 Z" id="Path" fill="#FFFFFF"></path>
            <path d="M239.359,268 L137.641,268 C134.127,268 131.283,265.157 131.283,261.643 C131.283,258.129 134.127,255.285 137.641,255.285 L239.359,255.285 C242.873,255.285 245.717,258.129 245.717,261.643 C245.717,265.157 242.873,268 239.359,268 Z" id="Path" fill="#2C2929"></path>
        </g>
    </g>
</svg>